<svg width="62" height="55" viewBox="0 0 62 55" fill="none" xmlns="http://www.w3.org/2000/svg">
<path d="M38.969 1.70978C40.8752 2.67389 42.659 3.86304 44.282 5.25179L44.9365 5.79849C46.4801 5.69 48.0275 5.94644 49.4535 6.54708C50.8795 7.14771 52.144 8.07566 53.1448 9.2558C51.2044 3.04189 45.4448 -0.392326 38.969 1.70978ZM43.4581 2.65689C43.0962 2.65689 43.0346 2.07168 43.3965 2.02548C44.665 1.86851 45.944 2.22009 46.954 3.00338C47.108 3.12658 47.0156 3.46539 46.7923 3.36529C45.7489 2.87976 44.6088 2.63754 43.4581 2.65689Z" fill="#8CC5DF"/>
<path d="M50.1957 10.6879C51.6606 12.2408 52.8786 14.0093 53.807 15.9316C55.0569 15.7703 56.3274 15.9278 57.5001 16.3896C58.6727 16.8514 59.7095 17.6024 60.5137 18.5728C60.3499 17.6733 60.0514 16.8037 59.6282 15.9932C58.7104 14.3145 57.3396 12.9272 55.672 11.9893C54.0044 11.0513 52.107 10.6005 50.1957 10.6879ZM52.8753 12.7361C52.4287 12.7361 52.4672 12.0893 52.8753 12.0585C53.463 12.0177 54.0525 12.1038 54.6039 12.3111C55.1553 12.5184 55.6556 12.8419 56.0708 13.2597C56.1044 13.3015 56.1225 13.3537 56.1218 13.4073C56.1212 13.4609 56.1019 13.5126 56.0673 13.5536C56.0327 13.5946 55.985 13.6222 55.9322 13.6318C55.8795 13.6414 55.825 13.6324 55.7782 13.6062C54.929 13.0122 53.9113 12.7071 52.8753 12.7361Z" fill="#8CC5DF"/>
<path d="M46.0377 6.69946C47.1927 7.70047 48.3477 8.77077 49.4873 9.92577C50.7794 9.72799 52.0966 9.7645 53.3758 10.0336C53.3794 10.0003 53.3794 9.96674 53.3758 9.93347C53.3408 9.95799 53.2992 9.97114 53.2565 9.97114C53.2137 9.97114 53.1721 9.95799 53.1371 9.93347C50.8117 8.06236 48.8097 7.00746 46.0377 6.69946Z" fill="#B2D7E8"/>
<path d="M49.1793 31.7399C49.1793 31.8092 49.1177 31.8708 49.0869 31.9478C47.2502 35.835 45.0918 39.562 42.6343 43.0897L42.3032 43.5517C50.3882 41.9809 55.6858 34.8969 58.8583 27.7205C60.0236 25.3206 60.6316 22.6884 60.637 20.0205C60.637 20.0205 60.5908 20.0205 60.5754 19.9589C59.6892 18.6579 58.3937 17.6904 56.8948 17.21C57.6648 18.8886 56.4482 22.2997 55.9707 23.6087C54.7455 26.9287 52.5001 29.7752 49.5566 31.7399C49.5001 31.7755 49.4347 31.7943 49.368 31.7943C49.3012 31.7943 49.2358 31.7755 49.1793 31.7399Z" fill="#B2D7E8"/>
<path d="M23.7231 21.1678C23.4426 21.2151 23.1782 21.3313 22.9538 21.506C22.7293 21.6807 22.5518 21.9085 22.4372 22.1688C22.311 22.4475 22.2707 22.7575 22.3215 23.0592C22.3722 23.3609 22.5117 23.6406 22.7221 23.8628C22.9562 24.0839 23.2341 24.2537 23.5378 24.3611C23.8414 24.4685 24.1642 24.5112 24.4854 24.4865C24.8497 24.4574 25.2036 24.3511 25.5236 24.1745C25.8436 23.9979 26.1223 23.7551 26.3411 23.4624L26.01 23.1698C25.2939 22.523 24.5393 21.8454 23.7847 21.137L23.7231 21.1678Z" fill="#B2D7E8"/>
<path d="M17.6635 33.5569C17.403 33.8008 17.1823 34.0839 17.0092 34.396C16.963 34.5269 16.9168 34.4884 17.0092 34.6346C17.1467 34.7481 17.2996 34.8414 17.4634 34.9118L18.1716 35.3352C18.5257 34.8194 18.8567 34.2651 19.2339 33.7494C18.849 33.5338 18.4641 33.3106 18.033 33.0488C17.9176 33.2182 17.7867 33.3799 17.6635 33.5569Z" fill="#B2D7E8"/>
<path d="M10.094 21.1755C4.64238 24.4865 -0.254829 28.7755 2.73278 32.7256C5.84241 36.6844 9.54026 40.1433 13.6976 42.982L14.4676 41.904C14.3958 41.844 14.3463 41.7614 14.3272 41.6698C14.3081 41.5781 14.3205 41.4827 14.3623 41.399C14.4042 41.3152 14.4731 41.2481 14.5579 41.2084C14.6427 41.1687 14.7384 41.1587 14.8295 41.1802C16.0941 41.4908 17.415 41.4908 18.6795 41.1802C18.7463 41.1676 18.8153 41.1814 18.872 41.2187L18.6102 39.8943C17.5607 40.1288 16.476 40.1601 15.4147 39.9867C15.0605 39.9328 15.1606 39.3399 15.5225 39.363C16.6691 39.486 17.8255 39.486 18.9721 39.363C19.015 39.3516 19.0601 39.3516 19.103 39.363L18.4562 38.0232C15.7073 39.0396 12.6119 38.1464 9.5858 35.8595C7.7994 34.512 5.73579 32.5254 5.61259 30.1384C5.48939 27.7514 7.66079 25.6569 9.2932 24.1092C9.35336 24.0492 9.43204 24.0112 9.5165 24.0014C9.42029 23.5697 9.4554 23.119 9.61731 22.7074C9.77922 22.2958 10.0605 21.942 10.4251 21.6914L10.094 21.1755Z" fill="#65B1D2"/>
<path d="M9.73211 24.8098C8.0227 26.6347 6.2363 28.6598 6.9601 31.4703C7.4375 33.3106 10.094 35.1586 11.5801 36.0133C13.5667 37.1607 15.792 38.1077 18.0635 37.33C19.4201 36.7299 20.6508 35.8781 21.6902 34.8198C21.0228 34.633 20.3774 34.3748 19.7652 34.0498C19.4536 34.7641 19.0581 35.4387 18.5871 36.0595C18.5349 36.142 18.4521 36.2005 18.3569 36.2221C18.2616 36.2438 18.1617 36.2268 18.0789 36.175C17.5861 35.8901 17.0702 35.6283 16.6005 35.3203C16.3233 35.1278 16.0692 34.9045 16.1 34.5503C16.1308 34.1961 16.5004 33.7803 16.7314 33.5108C16.9624 33.2413 17.1703 32.9487 17.3859 32.6715C14.1981 30.5463 10.7408 27.397 9.73211 24.8098Z" fill="#B2D7E8"/>
<path d="M19.1184 26.2189C18.0635 25.318 10.6484 18.5189 10.7331 23.9782C10.7331 26.2343 14.1827 28.6752 15.8459 30.0227C17.5091 31.3702 20.0655 33.6956 22.2985 33.8727C22.3785 33.8776 22.456 33.9019 22.5244 33.9435C22.5928 33.9851 22.6501 34.0427 22.6912 34.1114C22.6848 34.0559 22.6953 33.9996 22.7215 33.9502C22.7476 33.9007 22.788 33.8603 22.8375 33.8342C27.1881 31.5242 20.7046 27.5664 19.1184 26.2189Z" fill="#65B1D2"/>
<path d="M10.094 21.1755L10.402 21.6914C10.9919 21.3096 11.6513 21.048 12.3424 20.9214C14.1288 20.5364 15.307 21.7453 16.6314 22.8233C18.9414 24.7098 21.2514 26.6733 23.4536 28.6984C25.9946 31.0084 26.8801 33.1028 23.0378 34.3733C22.99 34.3924 22.937 34.3944 22.8879 34.379C22.8388 34.3636 22.7966 34.3316 22.7683 34.2886C22.7915 34.4129 22.7661 34.5413 22.6973 34.6474C22.6285 34.7534 22.5216 34.829 22.3987 34.8584C21.4303 36.3036 20.0481 37.4227 18.4332 38.0693L19.08 39.4399C19.1127 39.4607 19.1386 39.4905 19.1547 39.5257C19.1708 39.561 19.1763 39.6001 19.1706 39.6384C19.1649 39.6767 19.1482 39.7125 19.1226 39.7415C19.0969 39.7705 19.0634 39.7915 19.0261 39.8018L18.5872 39.9096L18.8182 41.1955C18.8615 41.2195 18.8976 41.2547 18.9228 41.2973C18.9479 41.34 18.9612 41.3886 18.9612 41.4381C18.9612 41.4876 18.9479 41.5362 18.9228 41.5789C18.8976 41.6215 18.8615 41.6567 18.8182 41.6806C17.4612 42.2224 15.9667 42.3168 14.5524 41.9501C14.5088 41.9384 14.4673 41.9202 14.4292 41.8962L13.6592 42.9742C15.7613 44.4757 17.9481 45.8463 20.1426 47.1477C20.1807 46.8827 20.2532 46.6239 20.3582 46.3777C21.6133 43.4131 25.4402 40.1714 27.6347 37.9076C30.2833 35.1398 33.1718 32.612 36.2664 30.3539C32.8487 28.6094 29.6727 26.4274 26.8185 23.8628C26.0485 25.7647 23.0301 25.8109 21.8058 24.3248C21.5077 23.9524 21.3201 23.5039 21.2643 23.0302C21.2084 22.5565 21.2867 22.0766 21.4901 21.6452C21.7611 21.0144 22.2703 20.5162 22.9069 20.2592C21.6492 19.0463 20.5356 17.6924 19.5882 16.2244C17.6555 17.1638 13.7516 18.9425 10.094 21.1755Z" fill="#65B1D2"/>
<path d="M22.4756 45.5999C22.183 45.9772 21.8827 46.3699 21.5978 46.7241C21.956 47.7301 22.6902 48.5581 23.646 49.0341C24.7017 49.7474 25.7968 50.4004 26.9262 50.9899C27.8117 51.5289 29.8677 53.1998 30.8687 53.3846C33.0709 53.785 35.1576 50.4817 36.4281 49.0341C38.5917 46.5564 40.5952 43.9434 42.4264 41.2109C43.7585 39.2243 45.0059 37.1838 46.1455 35.0509C47.3852 32.8025 49.5104 29.7148 49.8261 26.9351C46.9629 29.0908 43.7026 30.6608 40.2319 31.5551C40.2132 31.6116 40.183 31.6637 40.1432 31.708C40.1033 31.7523 40.0548 31.7879 40.0005 31.8125C39.9462 31.8371 39.8875 31.8502 39.8279 31.8509C39.7683 31.8517 39.7092 31.8401 39.6544 31.8169C38.7227 31.4781 37.8218 31.0469 36.9286 30.6619C33.2249 34.1731 29.4442 37.5919 26.0407 41.388C24.9781 42.5892 23.0839 44.1831 22.4756 45.5999ZM32.3548 49.8118C32.3058 49.8557 32.2413 49.8784 32.1756 49.8748C32.1099 49.8711 32.0483 49.8416 32.0044 49.7926C31.9605 49.7436 31.9379 49.6791 31.9415 49.6134C31.9451 49.5477 31.9747 49.4861 32.0237 49.4422C32.7224 48.7109 33.378 47.9396 33.9872 47.1322C34.2567 46.778 34.8419 47.1322 34.5878 47.5095C33.9806 48.4078 33.2256 49.1967 32.3548 49.8426L32.3548 49.8118ZM32.1546 51.783C31.9236 51.9293 31.6618 51.552 31.8851 51.3903C32.9139 50.6073 33.7621 49.612 34.3722 48.472C34.5878 48.087 35.1422 48.472 34.9497 48.8416C34.2928 50.059 33.3293 51.0835 32.1546 51.8138L32.1546 51.783Z" fill="#65B1D2"/>
<path d="M24.0465 4.61271C21.5825 5.98331 19.311 7.23842 19.1262 10.611C18.9876 13.0673 20.3505 15.231 21.8135 17.0867C26.6295 23.083 32.8354 27.8141 39.8931 30.8698C43.4253 29.8117 46.6892 28.0077 49.4642 25.5799C51.0043 24.2093 52.7753 22.4537 53.2681 20.3747C53.8841 17.8413 52.4365 15.7931 51.0505 13.9759C46.8924 8.52432 40.0009 1.2016 32.5704 1.5866C29.4981 1.7098 26.703 3.1343 24.0465 4.61271ZM20.5738 9.74093C20.5643 9.15725 20.6836 8.57866 20.9232 8.04632C21.1628 7.51398 21.5167 7.04096 21.9598 6.66092C22.0139 6.61293 22.0848 6.5884 22.157 6.59273C22.2293 6.59706 22.2968 6.6299 22.3448 6.68402C22.3928 6.73813 22.4173 6.8091 22.413 6.8813C22.4086 6.9535 22.3758 7.02103 22.3217 7.06902C21.9715 7.41899 21.6956 7.83601 21.5104 8.29511C21.3251 8.75421 21.2344 9.24596 21.2437 9.74093C21.2315 9.82104 21.191 9.89412 21.1295 9.94694C21.0681 9.99975 20.9897 10.0288 20.9087 10.0288C20.8277 10.0288 20.7493 9.99975 20.6879 9.94694C20.6264 9.89412 20.5859 9.82104 20.5738 9.74093ZM22.1138 9.84873C21.8982 10.2183 21.3438 9.84873 21.544 9.48682C21.7442 9.12492 22.1908 8.52432 22.5604 8.07772C22.593 8.02564 22.6451 7.98868 22.705 7.97496C22.7649 7.96125 22.8278 7.9719 22.8799 8.00457C22.932 8.03725 22.969 8.08927 22.9827 8.1492C22.9964 8.20912 22.9857 8.27204 22.9531 8.32412C22.7032 8.84676 22.4256 9.35568 22.1215 9.84873L22.1138 9.84873Z" fill="#65B1D2"/>
<path d="M6.07461 22.7617C3.5721 24.5404 -0.616701 26.8042 0.0763004 30.4617C0.846301 34.3579 6.03612 38.2772 8.84663 40.6796C12.3121 43.648 16.1734 46.1203 20.3197 48.0254C20.7049 48.5038 21.1714 48.9104 21.698 49.2266C23.5537 50.551 25.6558 51.629 27.6039 52.8071C28.5972 53.4154 29.8446 54.555 31.0073 54.8014C32.94 55.2326 34.0873 53.3153 35.3193 52.0525C37.5672 49.6549 39.6631 47.1192 41.5948 44.4603C41.6526 44.5101 41.72 44.5474 41.7929 44.5699C41.8658 44.5925 41.9425 44.5997 42.0183 44.5912C51.7665 43.3823 59.4281 32.918 61.4455 23.8012C62.8084 17.7104 59.5513 11.7198 54.0226 10.1798C53.2526 2.5722 45.5526 -1.83991 38.484 0.739593C38.372 0.779936 38.2766 0.856198 38.2125 0.956485C38.1484 1.05677 38.1194 1.17545 38.1298 1.294C36.5404 0.604615 34.8265 0.248218 33.094 0.246793C26.6491 0.292994 16.1539 5.30571 18.1636 13.075C18.3482 13.7927 18.6062 14.4893 18.9336 15.154C14.4435 17.3285 10.1423 19.8731 6.07461 22.7617ZM2.73281 32.7178C-0.254804 28.7754 4.64241 24.4865 10.094 21.1678C13.7515 18.9347 17.6554 17.156 19.565 16.2166C20.5283 17.7069 21.6628 19.0791 22.9454 20.3054C22.3088 20.5624 21.7995 21.0606 21.5286 21.6914C21.3252 22.1228 21.2469 22.6027 21.3027 23.0764C21.3585 23.5501 21.5462 23.9986 21.8443 24.371C23.0686 25.8571 26.1024 25.8109 26.857 23.909C29.7112 26.4735 32.8872 28.6556 36.3049 30.4001C33.2103 32.6582 30.3218 35.186 27.6732 37.9538C25.4787 40.1868 21.6518 43.4285 20.3967 46.4238C20.2916 46.67 20.2192 46.9289 20.181 47.1938C17.9865 45.8925 15.7997 44.5219 13.6976 43.0204C9.5369 40.1677 5.83887 36.693 2.73281 32.7178ZM19.1261 10.611C19.3109 7.23841 21.5825 5.99101 24.0465 4.6127C26.703 3.1343 29.4981 1.7175 32.5935 1.5327C40.0009 1.14769 46.8924 8.46272 51.0735 13.922C52.4595 15.7392 53.9071 17.772 53.2911 20.3207C52.7983 22.3998 50.9811 24.1708 49.4873 25.526C46.7144 27.9621 43.4503 29.774 39.9162 30.839C32.8559 27.8018 26.6423 23.0894 21.8135 17.1098C20.3582 15.2695 18.9875 13.0673 19.1261 10.611ZM22.4372 22.1611C22.5518 21.9008 22.7293 21.673 22.9538 21.4983C23.1782 21.3236 23.4426 21.2073 23.7231 21.1601L23.7847 21.1601C24.5547 21.8685 25.3247 22.5461 26.01 23.1929L26.3411 23.4855C26.1223 23.7782 25.8436 24.021 25.5236 24.1976C25.2036 24.3742 24.8497 24.4805 24.4854 24.5096C24.1642 24.5343 23.8414 24.4916 23.5378 24.3842C23.2341 24.2767 22.9562 24.107 22.7221 23.8859C22.5069 23.6618 22.3646 23.3779 22.3138 23.0714C22.2629 22.765 22.3059 22.4503 22.4372 22.1688L22.4372 22.1611ZM44.2821 5.22101C42.659 3.83226 40.8753 2.6431 38.9691 1.679C45.4448 -0.38461 51.2044 3.0496 53.1448 9.22502C52.1441 8.04487 50.8795 7.11693 49.4535 6.51629C48.0275 5.91566 46.4801 5.65921 44.9366 5.76771L44.2821 5.22101ZM21.5979 46.8011C21.8828 46.4238 22.1831 46.0311 22.4757 45.6769C23.084 44.2293 24.9936 42.6354 26.0408 41.465C29.4442 37.6535 33.2249 34.2501 36.9286 30.7389C37.8218 31.1624 38.7227 31.5551 39.6544 31.8939C39.7093 31.9171 39.7683 31.9287 39.8279 31.928C39.8875 31.9272 39.9463 31.9141 40.0005 31.8895C40.0548 31.8649 40.1034 31.8293 40.1432 31.785C40.183 31.7407 40.2132 31.6887 40.2319 31.6321C43.7026 30.7378 46.9629 29.1679 49.8261 27.0121C49.5104 29.7918 47.3852 32.8795 46.1455 35.1279C45.0059 37.2223 43.7585 39.2628 42.4264 41.2879C40.5952 44.0204 38.5917 46.6334 36.4281 49.1111C35.1576 50.5587 33.0709 53.862 30.8687 53.4616C29.8677 53.2768 27.7887 51.6059 26.9263 51.0669C25.7961 50.4674 24.701 49.8041 23.6461 49.0803C22.6872 48.6007 21.9526 47.7667 21.5979 46.7549L21.5979 46.8011ZM49.4873 9.92572C48.3708 8.77072 47.1773 7.70042 46.0377 6.69941C48.8097 7.00741 50.8117 8.06232 53.114 9.94112C53.149 9.96564 53.1907 9.97879 53.2334 9.97879C53.2761 9.97879 53.3178 9.96564 53.3527 9.94112C53.3563 9.97439 53.3563 10.0079 53.3527 10.0412C52.0815 9.77238 50.7724 9.73326 49.4873 9.92572ZM53.807 15.9317C52.8786 14.0094 51.6606 12.2409 50.1957 10.688C52.107 10.6005 54.0044 11.0514 55.672 11.9894C57.3396 12.9273 58.7104 14.3146 59.6283 15.9933C60.0434 16.8051 60.3341 17.6746 60.4907 18.5728C59.6886 17.6061 58.6556 16.8573 57.4874 16.3956C56.3191 15.934 55.0533 15.7744 53.807 15.9317ZM54.2382 16.9173C54.8476 16.8639 55.4614 16.8924 56.0632 17.002C57.0719 19.0887 55.2932 23.1621 54.2921 25.0563C53.1836 27.1411 51.6582 28.9758 49.8107 30.4463C50.5395 29.1201 50.9235 27.6321 50.9272 26.1189C53.7146 23.5933 55.4395 20.4362 54.2382 16.9173ZM49.0946 31.917C49.0946 31.84 49.1562 31.7784 49.187 31.7091C49.2435 31.7446 49.3089 31.7635 49.3757 31.7635C49.4424 31.7635 49.5078 31.7446 49.5643 31.7091C52.5157 29.7605 54.7745 26.9276 56.017 23.6164C56.4944 22.3074 57.711 18.8962 56.941 17.2176C58.4399 17.6981 59.7354 18.6656 60.6216 19.9665C60.6216 19.9665 60.6216 20.005 60.6832 20.0281C60.6778 22.696 60.0698 25.3282 58.9045 27.7282C55.6936 34.9046 50.4344 41.9886 42.3109 43.5286L42.642 43.0666C45.0972 39.5361 47.253 35.8066 49.0869 31.917L49.0946 31.917Z" fill="#222221"/>
<path d="M10.402 21.7298C10.0375 21.9803 9.75616 22.3341 9.59425 22.7457C9.43234 23.1574 9.39723 23.608 9.49344 24.0398C9.40898 24.0495 9.3303 24.0875 9.27014 24.1476C7.63773 25.6876 5.42013 27.6973 5.58953 30.1767C5.75893 32.6561 7.77634 34.5503 9.56274 35.8978C12.5888 38.2078 15.7228 39.0779 18.4332 38.0615C20.0523 37.4066 21.4349 36.2764 22.3987 34.8198C22.5216 34.7903 22.6285 34.7148 22.6973 34.6087C22.7661 34.5027 22.7915 34.3743 22.7683 34.25C22.7965 34.293 22.8388 34.3249 22.8879 34.3404C22.937 34.3558 22.99 34.3538 23.0378 34.3347C26.8878 33.0642 25.9946 30.9621 23.4536 28.6598C21.2283 26.6424 18.9645 24.6712 16.6314 22.7847C15.307 21.7067 14.1288 20.4747 12.3424 20.8828C11.6456 21.0329 10.9859 21.3208 10.402 21.7298ZM6.96013 31.5396C6.23633 28.7368 8.02273 26.704 9.73214 24.8791C10.7408 27.4355 14.2367 30.5848 17.386 32.6715C17.1704 32.9487 16.9548 33.2336 16.7315 33.5108C16.5082 33.788 16.1386 34.1499 16.1001 34.5503C16.0616 34.9507 16.3234 35.1432 16.6006 35.3203C17.0703 35.6283 17.5862 35.8901 18.079 36.175C18.1617 36.2268 18.2617 36.2437 18.3569 36.2221C18.4521 36.2004 18.5349 36.142 18.5872 36.0595C19.0581 35.4386 19.4536 34.764 19.7653 34.0498C20.3775 34.3748 21.0228 34.6329 21.6903 34.8198C20.6489 35.8907 19.4128 36.7532 18.0482 37.3608C15.7382 38.1308 13.5514 37.1914 11.5647 36.0441C10.094 35.1894 7.43753 33.3414 6.96013 31.5011L6.96013 31.5396ZM10.7331 24.0167C10.6715 18.5728 18.0636 25.3565 19.1185 26.2574C20.7047 27.6049 27.1881 31.5627 22.8376 33.8496C22.7881 33.8756 22.7476 33.9161 22.7215 33.9655C22.6954 34.015 22.6848 34.0712 22.6913 34.1268C22.6501 34.0581 22.5929 34.0005 22.5245 33.9589C22.456 33.9173 22.3785 33.893 22.2986 33.8881C20.0656 33.7341 17.5092 31.4087 15.846 30.0381C14.1827 28.6675 10.7639 26.2343 10.7331 23.9782L10.7331 24.0167ZM17.0087 34.4348C17.1818 34.1226 17.4026 33.8395 17.6632 33.5955C17.7864 33.4184 17.9173 33.2567 18.0405 33.0873C18.4563 33.3491 18.8567 33.5724 19.2417 33.788C18.8644 34.3039 18.5333 34.8583 18.1791 35.3742L17.4707 34.9507C17.3068 34.8803 17.1539 34.787 17.0164 34.6735C16.9163 34.4887 16.9625 34.5272 17.0087 34.3963L17.0087 34.4348Z" fill="#222221"/>
<path d="M21.9598 6.6764C21.5167 7.05645 21.1628 7.52946 20.9232 8.06181C20.6836 8.59415 20.5643 9.17273 20.5738 9.75641C20.5859 9.83652 20.6264 9.90962 20.6879 9.96243C20.7493 10.0152 20.8277 10.0443 20.9087 10.0443C20.9897 10.0443 21.0681 10.0152 21.1295 9.96243C21.191 9.90962 21.2315 9.83652 21.2437 9.75641C21.2365 9.26402 21.3282 8.77519 21.5134 8.31889C21.6986 7.86258 21.9734 7.44807 22.3217 7.09991C22.3778 7.05192 22.4126 6.98358 22.4184 6.90993C22.4242 6.83629 22.4005 6.76336 22.3525 6.7072C22.3045 6.65104 22.2361 6.61625 22.1625 6.61047C22.0889 6.6047 22.0159 6.62841 21.9598 6.6764Z" fill="#222221"/>
<path d="M21.552 9.48634C21.3211 9.84815 21.9061 10.2562 22.1217 9.84815C22.4288 9.3504 22.7089 8.83644 22.9608 8.30853C22.9934 8.25646 23.0041 8.19356 22.9904 8.13365C22.9767 8.07373 22.9397 8.02172 22.8876 7.98905C22.8356 7.95639 22.7727 7.94574 22.7128 7.95946C22.6528 7.97317 22.6008 8.01012 22.5682 8.06219C22.1987 8.52407 21.8984 9.01675 21.552 9.48634Z" fill="#222221"/>
<path d="M15.4994 39.3398C15.1375 39.3398 15.0374 39.9096 15.3916 39.9635C16.4529 40.137 17.5376 40.1056 18.5871 39.8711L19.026 39.7633C19.0633 39.753 19.0968 39.7321 19.1225 39.703C19.1481 39.674 19.1648 39.6382 19.1705 39.5999C19.1763 39.5616 19.1707 39.5225 19.1546 39.4873C19.1385 39.452 19.1126 39.4222 19.0799 39.4014C19.037 39.39 18.9919 39.39 18.949 39.4014C17.8002 39.504 16.6438 39.4833 15.4994 39.3398Z" fill="#222221"/>
<path d="M14.8218 41.1723C14.7307 41.1509 14.635 41.1608 14.5502 41.2005C14.4654 41.2402 14.3965 41.3074 14.3547 41.3911C14.3128 41.4748 14.3004 41.5702 14.3195 41.6619C14.3386 41.7536 14.3881 41.8361 14.4599 41.8961C14.4981 41.9201 14.5396 41.9383 14.5831 41.95C15.9975 42.3167 17.492 42.2223 18.8489 41.6805C18.8923 41.6565 18.9284 41.6214 18.9535 41.5787C18.9787 41.5361 18.9919 41.4875 18.9919 41.438C18.9919 41.3884 18.9787 41.3398 18.9535 41.2972C18.9284 41.2545 18.8923 41.2194 18.8489 41.1954C18.7922 41.1581 18.7232 41.1443 18.6564 41.1569C17.398 41.4701 16.0827 41.4754 14.8218 41.1723Z" fill="#222221"/>
<path d="M43.4197 2.02564C43.0578 2.07184 43.1194 2.66474 43.4813 2.65704C44.632 2.63769 45.772 2.87992 46.8154 3.36544C47.0387 3.46554 47.1311 3.12674 46.9771 3.00354C45.9671 2.22025 44.6881 1.86866 43.4197 2.02564Z" fill="#222221"/>
<path d="M52.8907 12.0587C52.4672 12.0587 52.4287 12.7517 52.8907 12.7363C53.9198 12.7061 54.9315 13.0055 55.7783 13.591C55.8251 13.6171 55.8795 13.6262 55.9323 13.6166C55.985 13.607 56.0328 13.5793 56.0674 13.5384C56.102 13.4974 56.1212 13.4457 56.1219 13.3921C56.1225 13.3384 56.1045 13.2863 56.0709 13.2445C55.656 12.8315 55.1576 12.512 54.6091 12.3075C54.0606 12.1029 53.4747 12.0181 52.8907 12.0587Z" fill="#222221"/>
<path d="M32.0243 49.4493C32 49.471 31.9803 49.4973 31.9662 49.5267C31.9521 49.556 31.9439 49.5879 31.9421 49.6204C31.9403 49.6529 31.945 49.6855 31.9558 49.7162C31.9666 49.7469 31.9833 49.7753 32.0051 49.7995C32.0268 49.8238 32.0531 49.8435 32.0825 49.8576C32.1118 49.8717 32.1437 49.8799 32.1762 49.8817C32.2087 49.8835 32.2413 49.8788 32.272 49.868C32.3027 49.8572 32.3311 49.8405 32.3553 49.8188C33.224 49.1799 33.9787 48.3991 34.5878 47.5093C34.8418 47.1244 34.2568 46.778 33.9873 47.1321C33.3785 47.942 32.7231 48.7156 32.0243 49.4493Z" fill="#222221"/>
<path d="M31.9082 51.4211C31.6849 51.5828 31.9082 51.9601 32.1777 51.8138C33.3485 51.092 34.3116 50.0784 34.9728 48.8724C35.1807 48.4874 34.6109 48.1024 34.3953 48.5028C33.7853 49.6427 32.937 50.638 31.9082 51.4211Z" fill="#222221"/>
</svg>
