<svg width="176" height="106" viewBox="0 0 176 106" fill="none" xmlns="http://www.w3.org/2000/svg">
<path d="M173.944 39.2824C171.179 32.8137 166.955 27.2341 161.676 23.0765C151.252 14.4831 138.313 10.44 125.346 11.7249C123.787 11.8992 116.897 12.3472 115.36 12.6958C111.052 9.76737 106.515 7.26809 101.804 5.2276C93.4778 1.64666 84.6018 -0.128418 75.6642 -0.000100089C66.7524 0.0743146 57.9543 2.2116 49.8403 6.27316C42.2761 10.1407 35.6146 15.8628 30.3651 23.0018C27.5366 26.8961 25.182 31.1809 23.3612 35.7474C22.4509 38.0224 21.6957 40.3689 21.1019 42.7675C20.8082 43.9126 20.5597 45.0329 20.3338 46.2029C12.8555 45.2569 5.78378 50.9078 2.41741 58.0274C-1.53637 66.4167 -0.0451925 76.4987 4.29268 84.3402C9.15688 92.3599 16.3888 98.279 24.762 101.094C33.5843 104.36 42.9058 105.671 52.1899 104.952C60.0346 104.475 67.7461 102.513 74.9864 99.1521C80.5601 101.603 86.4142 103.195 92.383 103.882C98.6637 104.749 105.01 104.882 111.316 104.28C124.009 103.088 136.329 98.9474 147.465 92.132C158.761 85.1368 170.058 75.1295 174.577 61.1641C176.853 54.039 176.627 46.2333 173.944 39.2824Z" fill="#AAAAAA"/>
<path d="M172.656 56.6582C170.103 70.5988 159.597 80.7803 149.114 87.9747C138.774 94.9741 127.239 99.5581 115.225 101.442C103.096 103.355 90.7425 102.568 78.895 99.1271L76.3646 98.4052C78.2629 97.4198 80.104 96.3058 81.8773 95.0694C82.0121 94.9968 82.1152 94.8681 82.164 94.7117C82.2127 94.5553 82.203 94.384 82.1371 94.2355C82.0712 94.0869 81.9544 93.9733 81.8125 93.9196C81.6705 93.8659 81.515 93.8766 81.3802 93.9492C73.3346 97.7276 64.847 100.242 56.1664 101.417C47.5378 102.506 38.8014 101.848 30.3877 99.4756C22.3487 97.5073 15.0299 92.9289 9.37613 86.3317C4.36046 79.9588 1.33299 70.9722 3.23081 62.5829C4.19487 58.4513 6.33757 54.7699 9.34337 52.0809C12.3492 49.392 16.0592 47.8376 19.927 47.6466C19.8063 48.4697 19.7459 49.3022 19.7463 50.136C19.7463 51.6545 21.7797 51.1816 22.0056 50.0116C22.4575 47.8707 22.7738 45.68 23.2708 43.5641C23.7432 41.5631 24.3395 39.6001 25.0557 37.6891C26.4809 33.8244 28.3242 30.1634 30.5458 26.7856C35.1411 19.7693 41.1601 14.0324 48.1232 10.0321C63.4413 1.21964 81.6287 0.746662 97.828 6.42246C107.164 9.66757 115.967 14.5424 123.9 20.8609C124.397 21.2343 125.166 20.363 124.646 19.9149C122.635 18.1972 120.579 16.5791 118.478 14.9361C130.339 13.0193 144.935 14.4383 155.734 22.6781C160.949 26.2879 165.47 30.9905 169.041 36.5191C172.619 42.44 173.919 49.6826 172.656 56.6582Z" fill="white"/>
<g style="mix-blend-mode:multiply">
<path d="M169.245 36.5939C166.385 32.0109 162.785 28.0452 158.626 24.8938C162.209 32.4842 163.386 41.1764 161.97 49.5885C159.484 64.5248 150.199 75.1793 137.818 81.1539C125.942 86.974 112.834 89.0508 99.9517 87.1533C90.4174 85.6099 78.1268 82.1745 74.4216 71.2212C68.4786 76.1942 61.5797 79.5992 54.2554 81.1744C46.9311 82.7496 39.3765 82.453 32.1725 80.3075C20.876 76.897 6.8005 64.948 9.78278 51.9783C6.63706 54.7022 4.39064 58.4894 3.38897 62.7573C1.49116 71.1465 4.51863 80.183 9.53429 86.506C15.1881 93.1033 22.5069 97.6816 30.5458 99.65C38.9596 102.022 47.696 102.68 56.3245 101.592C65.0051 100.416 73.4928 97.902 81.5384 94.1236C81.6732 94.0509 81.8287 94.0403 81.9706 94.094C82.1126 94.1477 82.2293 94.2613 82.2952 94.4098C82.3611 94.5584 82.3708 94.7297 82.3221 94.8861C82.2733 95.0425 82.1702 95.1712 82.0354 95.2438C80.2476 96.482 78.3913 97.5961 76.4775 98.5795L79.008 99.3015C90.8555 102.742 103.209 103.529 115.338 101.617C127.352 99.7324 138.887 95.1485 149.227 88.149C159.71 80.9547 170.216 70.7233 172.769 56.8326C173.42 53.3696 173.443 49.7991 172.839 46.326C172.234 42.8529 171.012 39.5456 169.245 36.5939Z" fill="#EDEDED"/>
</g>
</svg>
