<svg width="999" height="123" viewBox="0 0 999 123" fill="none" xmlns="http://www.w3.org/2000/svg">
<path style="mix-blend-mode:multiply" fill-rule="evenodd" clip-rule="evenodd" d="M121.39 122.933C323.31 122.027 785.948 121.489 968.55 122.933C972.895 123.095 977.433 122.964 981.241 122.566C984.343 122.076 984.061 121.122 984.202 120.412C984.202 117.963 985.189 115.27 984.202 113.36L944.579 112.846L984.202 111.23C980.536 98.1724 977.998 85.0329 976.587 71.8118L955.155 70.5142L976.447 69.2655C974.754 50.4867 982.651 32.932 986.458 14.2021C976.343 9.90947 963.728 5.80757 948.809 1.96037C947.556 1.60299 945.797 1.30732 943.699 1.10159C941.6 0.89585 939.234 0.786902 936.824 0.785156C856.028 2.03382 178.074 3.42939 32.5567 2.15625C28.817 2.15625 25.2305 2.41419 22.5861 2.87335C19.9418 3.3325 18.4562 3.95525 18.4562 4.6046C17.6101 10.1134 21.1353 13.7125 22.2633 18.9519L37.9149 20.6658L30.8647 22.2817L32.1337 23.5303L23.2504 24.6076C26.6345 44.1944 26.3055 63.6751 22.2633 83.0498L34.1078 84.1025L28.1855 85.9878L44.8242 87.4568L20.9943 88.5096C19.1612 96.2953 12.252 104.13 11.9699 111.695C43.6394 116.75 81.1266 120.581 121.954 122.933H121.39Z" fill="url(#paint0_radial_0_237)"/>
<path fill-rule="evenodd" clip-rule="evenodd" d="M121.954 119.506C151.988 120.779 883.383 120.142 999.007 118.747C998.02 116.298 997.174 113.63 996.328 111.059L955.013 110.471L995.764 108.904C991.91 96.4341 989.278 83.9067 987.868 71.3222L965.871 70.0735L987.586 68.8983C985.894 50.9764 984.766 20.2251 987.868 2.25422H938.093C930.902 1.71559 123.505 2.74388 5.20146 3.50287C7.17554 9.28097 8.82061 15.0509 10.1367 20.8127L26.0703 22.4531L18.879 23.9956L20.2891 25.1708L11.1237 26.1991C14.6958 44.8555 14.3668 63.4303 10.1367 81.9235L22.2631 82.9519L16.1999 84.7391L33.2616 86.1592L8.86761 87.163C6.89353 94.8345 4.26144 102.498 0.971313 110.153L121.954 119.408V119.506Z" fill="url(#paint1_linear_0_237)"/>
<path style="mix-blend-mode:multiply" fill-rule="evenodd" clip-rule="evenodd" d="M121.954 119.506L0.830383 110.251C14.7889 107.825 30.4732 105.719 47.5031 103.983C52.4383 103.983 109.404 117.596 121.954 119.506Z" fill="url(#paint2_radial_0_237)"/>
<path fill-rule="evenodd" clip-rule="evenodd" d="M40.3119 106.138C66.0757 110.853 93.3319 115.316 121.954 119.506C113.071 119.506 0.830383 111.793 0.830383 110.251C13.1611 108.653 26.3885 107.275 40.3119 106.138Z" fill="url(#paint3_linear_0_237)"/>
<path style="mix-blend-mode:screen" fill-rule="evenodd" clip-rule="evenodd" d="M937.388 9.18273C943.592 11.6311 970.101 13.3449 986.316 14.0794H988.008C989.205 14.3958 990.109 14.7428 990.688 15.1078C990.128 15.0898 989.555 15.0898 988.996 15.1078C968.832 13.5163 948.668 11.9739 929.209 10.2111C933.022 7.68035 935.988 5.11345 938.093 2.52323C938.554 2.50137 939.041 2.50137 939.503 2.52323V2.67013C935.257 4.78075 934.62 7.05964 937.67 9.23171L937.388 9.18273Z" fill="url(#paint4_radial_0_237)"/>
<defs>
<radialGradient id="paint0_radial_0_237" cx="0" cy="0" r="1" gradientUnits="userSpaceOnUse" gradientTransform="translate(480.39 81.0911) scale(893.833 155.201)">
<stop stop-color="#706F6F"/>
<stop offset="1" stop-color="white"/>
</radialGradient>
<linearGradient id="paint1_linear_0_237" x1="499.989" y1="120.191" x2="499.989" y2="2.20525" gradientUnits="userSpaceOnUse">
<stop stop-color="#FFF7ED"/>
<stop offset="1" stop-color="#FFFAF4"/>
</linearGradient>
<radialGradient id="paint2_radial_0_237" cx="0" cy="0" r="1" gradientUnits="userSpaceOnUse" gradientTransform="translate(42.0039 121.66) scale(142.133 24.6794)">
<stop stop-color="#A48A7B"/>
<stop offset="1" stop-color="white"/>
</radialGradient>
<linearGradient id="paint3_linear_0_237" x1="59.9116" y1="115.515" x2="60.5155" y2="107.324" gradientUnits="userSpaceOnUse">
<stop stop-color="#BF9F7E"/>
<stop offset="1" stop-color="#EDD6B9"/>
</linearGradient>
<radialGradient id="paint4_radial_0_237" cx="0" cy="0" r="1" gradientUnits="userSpaceOnUse" gradientTransform="translate(982.227 5.04503) scale(75.5787 13.1232)">
<stop/>
<stop offset="1" stop-color="#A3805F"/>
</radialGradient>
</defs>
</svg>
