<svg width="48" height="48" viewBox="0 0 48 48" fill="none" xmlns="http://www.w3.org/2000/svg">
<circle cx="24" cy="24" r="22.5" fill="#AA1070" stroke="#F8EBFD" stroke-width="3"/>
<circle cx="24" cy="24.0001" r="20.3636" fill="#CD3F97"/>
<path d="M14.1962 7.57916C17.7048 5.0985 20.3274 5.06952 21.2001 5.36511C14.0696 7.95319 13.1768 11.8201 12.6761 12.0675C10.8707 12.9593 9.81055 10.68 14.1962 7.57916Z" fill="white"/>
<ellipse cx="23.0468" cy="4.60168" rx="1" ry="0.5" transform="rotate(-6.00198 23.0468 4.60168)" fill="white"/>
<path d="M27.7521 26.6952C28.3484 26.6955 28.9201 26.9325 29.3417 27.3543C29.7633 27.776 30.0001 28.3479 30.0001 28.9442V29.8622C30.0005 30.4359 29.8214 30.9953 29.4881 31.4622C27.9421 33.6252 25.4171 34.6952 21.9971 34.6952C18.5751 34.6952 16.0521 33.6232 14.5101 31.4592C14.1782 30.9932 13.9999 30.4353 14.0001 29.8632V28.9432C14.0002 28.6479 14.0585 28.3554 14.1716 28.0826C14.2848 27.8098 14.4506 27.562 14.6595 27.3532C14.8684 27.1445 15.1164 26.9789 15.3893 26.866C15.6622 26.7531 15.9547 26.6951 16.2501 26.6952H27.7521ZM32.0521 13.0992C32.2247 13.0006 32.4295 12.9746 32.6213 13.0269C32.8132 13.0792 32.9764 13.2056 33.0751 13.3782C34.1741 15.3019 34.7505 17.4797 34.7471 19.6952C34.7471 21.9492 34.1611 24.1192 33.0641 26.0312C33.0162 26.1187 32.9513 26.1958 32.8733 26.2579C32.7952 26.32 32.7056 26.3659 32.6096 26.393C32.5136 26.42 32.4132 26.4277 32.3142 26.4154C32.2152 26.4032 32.1196 26.3713 32.0331 26.3217C31.9466 26.2721 31.8708 26.2057 31.8102 26.1265C31.7497 26.0472 31.7055 25.9567 31.6804 25.8602C31.6552 25.7637 31.6496 25.6631 31.6638 25.5644C31.678 25.4656 31.7117 25.3707 31.7631 25.2852C32.7389 23.584 33.2506 21.6564 33.2471 19.6952C33.2471 17.7122 32.7341 15.8052 31.7721 14.1222C31.6735 13.9494 31.6477 13.7446 31.7002 13.5527C31.7527 13.3609 31.8793 13.1977 32.0521 13.0992ZM21.9971 14.6992C23.3231 14.6992 24.5949 15.226 25.5326 16.1637C26.4703 17.1014 26.9971 18.3731 26.9971 19.6992C26.9971 21.0253 26.4703 22.2971 25.5326 23.2347C24.5949 24.1724 23.3231 24.6992 21.9971 24.6992C20.671 24.6992 19.3992 24.1724 18.4615 23.2347C17.5238 22.2971 16.9971 21.0253 16.9971 19.6992C16.9971 18.3731 17.5238 17.1014 18.4615 16.1637C19.3992 15.226 20.671 14.6992 21.9971 14.6992ZM28.5861 15.0952C28.7589 14.9967 28.9637 14.9708 29.1555 15.0233C29.3474 15.0759 29.5105 15.2024 29.6091 15.3752C30.3574 16.6918 30.7496 18.1808 30.7471 19.6952C30.7492 21.2128 30.3552 22.7046 29.6041 24.0232C29.5553 24.1088 29.4901 24.184 29.4123 24.2444C29.3344 24.3049 29.2454 24.3494 29.1504 24.3754C29.0554 24.4015 28.9561 24.4085 28.8583 24.3962C28.7606 24.3839 28.6662 24.3525 28.5806 24.3037C28.4949 24.2549 28.4198 24.1897 28.3593 24.1119C28.2989 24.0341 28.2544 23.9451 28.2283 23.85C28.2023 23.755 28.1952 23.6558 28.2075 23.558C28.2198 23.4602 28.2513 23.3658 28.3001 23.2802C28.9227 22.1881 29.2492 20.9523 29.2471 19.6952C29.2495 18.4409 28.9248 17.2077 28.3051 16.1172C28.2069 15.9445 28.1812 15.7399 28.2337 15.5483C28.2862 15.3567 28.4135 15.1937 28.5861 15.0952Z" fill="white"/>
</svg>
